<?xml version="1.0" encoding="utf-8"?>
<!-- Generator: Adobe Illustrator 15.1.0, SVG Export Plug-In . SVG Version: 6.00 Build 0)  -->
<!DOCTYPE svg PUBLIC "-//W3C//DTD SVG 1.1//EN" "http://www.w3.org/Graphics/SVG/1.1/DTD/svg11.dtd">
<svg version="1.1" id="Layer_1" xmlns="http://www.w3.org/2000/svg" xmlns:xlink="http://www.w3.org/1999/xlink" x="0px" y="0px"
	 width="884.588px" height="78.564px" viewBox="0 0 884.588 78.564" enable-background="new 0 0 884.588 78.564"
	 xml:space="preserve">
<rect x="284.471" y="0.5" fill="#5F6BB2" width="77.565" height="77.564"/>
<rect x="205.291" y="0.5" fill="#4655A5" width="77.564" height="77.564"/>
<rect x="126.11" y="0.5" fill="#2D3079" width="77.564" height="77.564"/>
<rect x="522.013" y="0.5" fill="#F5833F" width="77.563" height="77.564"/>
<rect x="601.191" y="0.5" fill="#E45425" width="77.564" height="77.564"/>
<rect x="680.372" y="0.501" fill="#AA2223" width="77.564" height="77.564"/>
<rect x="442.832" y="0.5" fill="#A1A9D5" width="77.564" height="77.564"/>
<rect x="363.652" y="0.501" fill="#7B86C2" width="77.564" height="77.563"/>
<rect x="-11.5" y="165.836" fill="none" width="76" height="27"/>
<text transform="matrix(1 0 0 1 22.2949 176.4766)" fill="#4D4D4E" font-family="'OpenSans-Regular'" font-size="14">GOOD</text>
<g>
	<path fill="#4D4D4E" d="M14.114,38.811h6.991v10.001c-1.088,0.346-2.194,0.61-3.32,0.788c-1.125,0.178-2.428,0.267-3.91,0.267
		c-3.114,0-5.537-0.927-7.272-2.778C4.867,45.237,4,42.642,4,39.303c0-2.138,0.429-4.011,1.287-5.619
		c0.858-1.609,2.094-2.836,3.706-3.686c1.613-0.849,3.503-1.273,5.669-1.273c2.194,0,4.239,0.403,6.133,1.209l-0.928,2.11
		c-1.856-0.788-3.643-1.182-5.359-1.182c-2.503,0-4.459,0.746-5.866,2.237c-1.406,1.491-2.11,3.559-2.11,6.203
		c0,2.776,0.677,4.881,2.033,6.316s3.346,2.152,5.971,2.152c1.426,0,2.818-0.164,4.177-0.492v-6.33h-4.599V38.811z"/>
	<path fill="#4D4D4E" d="M43.892,39.275c0,3.291-0.832,5.879-2.497,7.764s-3.979,2.828-6.942,2.828
		c-3.029,0-5.366-0.927-7.012-2.778c-1.646-1.852-2.469-4.466-2.469-7.842c0-3.348,0.825-5.943,2.476-7.786
		c1.651-1.843,3.995-2.764,7.033-2.764c2.955,0,5.261,0.938,6.921,2.813C43.062,33.386,43.892,35.975,43.892,39.275z M27.504,39.275
		c0,2.785,0.593,4.896,1.78,6.336s2.909,2.159,5.169,2.159c2.279,0,4-0.717,5.163-2.152s1.744-3.55,1.744-6.344
		c0-2.767-0.579-4.865-1.737-6.295c-1.158-1.43-2.871-2.145-5.142-2.145c-2.278,0-4.01,0.72-5.197,2.159
		C28.098,34.435,27.504,36.527,27.504,39.275z"/>
	<path fill="#4D4D4E" d="M66.327,39.275c0,3.291-0.832,5.879-2.497,7.764c-1.665,1.885-3.979,2.828-6.941,2.828
		c-3.029,0-5.367-0.927-7.012-2.778c-1.646-1.852-2.469-4.466-2.469-7.842c0-3.348,0.825-5.943,2.476-7.786
		c1.651-1.843,3.995-2.764,7.033-2.764c2.954,0,5.261,0.938,6.921,2.813C65.498,33.386,66.327,35.975,66.327,39.275z M49.94,39.275
		c0,2.785,0.592,4.896,1.779,6.336s2.91,2.159,5.17,2.159c2.279,0,4-0.717,5.162-2.152c1.162-1.435,1.744-3.55,1.744-6.344
		c0-2.767-0.578-4.865-1.737-6.295s-2.872-2.145-5.141-2.145c-2.279,0-4.011,0.72-5.198,2.159
		C50.533,34.435,49.94,36.527,49.94,39.275z"/>
	<path fill="#4D4D4E" d="M87.328,39.106c0,3.395-0.921,5.99-2.764,7.786c-1.843,1.795-4.494,2.694-7.954,2.694h-5.697V29.021h6.302
		c3.198,0,5.682,0.886,7.455,2.659C86.442,33.452,87.328,35.927,87.328,39.106z M84.796,39.19c0-2.682-0.673-4.703-2.019-6.062
		c-1.345-1.359-3.346-2.04-5.999-2.04h-3.475v16.429h2.912c2.851,0,4.993-0.701,6.428-2.103
		C84.079,44.014,84.796,41.939,84.796,39.19z"/>
</g>
<rect x="154.5" y="165.836" fill="none" width="76" height="27"/>
<text transform="matrix(1 0 0 1 202.3633 176.4766)" fill="#4D4D4E" font-family="'OpenSans-Regular'" font-size="14">BAD</text>
<g>
	<path fill="#4D4D4E" d="M796.719,29.202h5.719c2.687,0,4.63,0.401,5.829,1.205c1.198,0.803,1.8,2.072,1.8,3.808
		c0,1.2-0.334,2.189-1.005,2.97c-0.669,0.78-1.646,1.286-2.927,1.516v0.138c3.073,0.527,4.61,2.142,4.61,4.847
		c0,1.809-0.611,3.221-1.833,4.237c-1.226,1.016-2.937,1.523-5.132,1.523h-7.062V29.202z M799.073,37.87h3.877
		c1.66,0,2.855-0.261,3.586-0.782c0.729-0.521,1.094-1.401,1.094-2.638c0-1.136-0.408-1.955-1.218-2.458
		c-0.812-0.504-2.106-0.755-3.879-0.755h-3.46V37.87z M799.073,39.864v7.574h4.223c1.634,0,2.863-0.316,3.688-0.948
		c0.827-0.632,1.241-1.622,1.241-2.97c0-1.255-0.423-2.179-1.269-2.769c-0.843-0.591-2.129-0.886-3.855-0.886H799.073z"/>
	<path fill="#4D4D4E" d="M827.817,49.446l-2.52-6.439h-8.114l-2.492,6.439h-2.382l8.004-20.327h1.979l7.963,20.327H827.817z
		 M824.563,40.888l-2.354-6.272c-0.304-0.794-0.618-1.768-0.941-2.922c-0.204,0.886-0.492,1.86-0.872,2.922l-2.382,6.272H824.563z"
		/>
	<path fill="#4D4D4E" d="M849.195,39.13c0,3.342-0.905,5.896-2.721,7.664c-1.812,1.767-4.424,2.652-7.829,2.652h-5.607V29.202h6.202
		c3.147,0,5.594,0.873,7.339,2.617C848.323,33.564,849.195,36,849.195,39.13z M846.703,39.213c0-2.64-0.662-4.63-1.985-5.968
		c-1.325-1.338-3.295-2.008-5.906-2.008h-3.421V47.41h2.867c2.805,0,4.916-0.69,6.328-2.07
		C845.998,43.96,846.703,41.918,846.703,39.213z"/>
</g>
</svg>
