<?xml version="1.0" encoding="utf-8"?>
<!-- Generator: Adobe Illustrator 15.1.0, SVG Export Plug-In . SVG Version: 6.00 Build 0)  -->
<!DOCTYPE svg PUBLIC "-//W3C//DTD SVG 1.1//EN" "http://www.w3.org/Graphics/SVG/1.1/DTD/svg11.dtd">
<svg version="1.1" xmlns="http://www.w3.org/2000/svg" xmlns:xlink="http://www.w3.org/1999/xlink" x="0px" y="0px"
	 width="4224.29px" height="1173.44px" viewBox="0 0 4224.29 1173.44" enable-background="new 0 0 4224.29 1173.44"
	 xml:space="preserve">
<g id="Layer_1">
</g>
<g id="Layer_2">
	<path fill="#7986CB" d="M3495.23,217.364c18.216,4.729,35.947,10.658,53.109,17.697l0.001,0
		c63.407-33.332,135.61-52.194,212.223-52.194c252.25,0,456.743,204.491,456.743,456.743l0,0
		c0.002,331.808-360.121,527.151-360.121,527.151l-262.732-0.021c0.002-34.556,13.345-65.993,35.16-89.442l-0.004,0.005
		c-42.829-12.795-83.02-31.704-119.557-55.716h0.004c-38.025,11.396-78.332,17.52-120.067,17.52
		c-17.662,0-35.069-1.097-52.152-3.225v-0.003c-19.54,47.084-46.18,91.214-79.188,130.652l0.27,0.226l-262.731-0.012
		c0.002-66.465,49.364-121.397,113.425-130.146h0.002c30.63-132.522,17.001-275.861-48.711-406.591
		c-95.856-190.702-279.367-308.47-477.689-329.409l-0.065-0.015c-5.978-0.599-11.985-1.07-17.979-2.669
		c-60.229-16.058-96.038-77.902-79.978-138.133h0.128l21.271-80.618c0.981-3.633,3.431-5.725,8.319-4.564l139.14,36.71v0
		c44.665-55.3,117.418-81.607,187.726-66.673l-0.021,0.076c0-20.723,16.799-37.521,37.521-37.521
		c20.722,0,37.52,16.798,37.52,37.521c0,6.82-1.818,13.215-5,18.726v-0.001l585.991,154.604"/>
	<path fill="none" stroke="#00AEEF" stroke-width="5" stroke-miterlimit="10" d="M2621.586,102.199"/>
</g>
<g id="Layer_3">
	<circle fill="none" stroke="#E8EAF6" stroke-width="20" stroke-miterlimit="10" cx="2597.254" cy="202.045" r="23.229"/>
	<path fill="none" stroke="#E8EAF6" stroke-width="20" stroke-miterlimit="10" d="M2853.195,199.955
		c-5.609,16.483,3.207,34.394,19.689,40.006c16.482,5.61,34.395-3.206,40.006-19.69c5.607-16.484-3.208-34.394-19.689-40.006
		C2876.717,174.656,2858.806,183.471,2853.195,199.955z"/>
	<circle fill="none" stroke="#E8EAF6" stroke-width="20" stroke-miterlimit="10" cx="3100.989" cy="353.588" r="23.229"/>
	<path fill="none" stroke="#E8EAF6" stroke-width="20" stroke-miterlimit="10" d="M3347.957,495.178
		c-6.157,18.086,3.519,37.742,21.606,43.897c18.086,6.157,37.743-3.517,43.896-21.605c6.159-18.088-3.516-37.743-21.604-43.9
		C3373.771,467.416,3354.112,477.086,3347.957,495.178z"/>
	<circle fill="none" stroke="#E8EAF6" stroke-width="20" stroke-miterlimit="10" cx="3420.879" cy="764.257" r="30.307"/>
	<path fill="none" stroke="#E8EAF6" stroke-width="20" stroke-miterlimit="10" d="M3939.461,504.801
		c-7.246,21.292,4.14,44.427,25.428,51.672c21.292,7.248,44.43-4.138,51.672-25.429c7.248-21.292-4.135-44.426-25.426-51.674
		C3969.839,472.127,3946.707,483.51,3939.461,504.801z"/>
	<path fill="none" stroke="#E8EAF6" stroke-width="20" stroke-miterlimit="10" d="M3858.949,809.097
		c-4.134,12.146,2.359,25.343,14.506,29.475c12.146,4.134,25.342-2.359,29.477-14.505c4.131-12.146-2.362-25.341-14.51-29.475
		C3876.277,790.46,3863.085,796.955,3858.949,809.097z"/>
	
		<line fill="none" stroke="#E8EAF6" stroke-width="20" stroke-miterlimit="10" x1="3937.277" y1="510.437" x2="3415.315" y2="504.438"/>
	
		<line fill="none" stroke="#E8EAF6" stroke-width="20" stroke-miterlimit="10" x1="3964.889" y1="556.473" x2="3888.422" y2="794.592"/>
	
		<line fill="none" stroke="#E8EAF6" stroke-width="20" stroke-miterlimit="10" x1="3858.949" y1="809.097" x2="3451.194" y2="762.096"/>
	
		<line fill="none" stroke="#E8EAF6" stroke-width="20" stroke-miterlimit="10" x1="3419.217" y1="733.942" x2="3387.016" y2="540.93"/>
	
		<line fill="none" stroke="#E8EAF6" stroke-width="20" stroke-miterlimit="10" x1="3347.957" y1="495.178" x2="3121.582" y2="365.172"/>
	
		<line fill="none" stroke="#E8EAF6" stroke-width="20" stroke-miterlimit="10" x1="3080.743" y1="340.978" x2="2914.58" y2="229.065"/>
	
		<line fill="none" stroke="#E8EAF6" stroke-width="20" stroke-miterlimit="10" x1="2851.506" y1="210.349" x2="2619.244" y2="209.529"/>
	<path fill="#4D4D4E" d="M906.705,1052.561l278.794,0.001c4.035,0,7.306,4.242,7.306,9.476v92.549c0,5.235-3.271,9.476-7.306,9.476
		H804.678c-5.233,0-9.477-4.288-9.477-9.577V593.072c0-5.291,4.243-9.579,9.477-9.579l372.33,0.045c4.034,0,7.306,4.243,7.306,9.477
		v92.549c0,5.234-3.271,9.476-7.306,9.476H906.705l0,0v119.827l0,0l239.507,0.001c4.035,0,7.305,4.243,7.305,9.476v92.552
		c0,5.231-3.27,9.476-7.305,9.476l-239.507-0.001l0,0V1052.561"/>
	<path fill="#4D4D4E" d="M118.038,892.834l184.463,221.302l-0.002-0.001l171.336-213.843v0.001v252.939
		c0,5.982,4.242,10.83,9.477,10.83h92.551c5.234,0,9.476-4.847,9.476-10.83V583.494l0,0l-284.25,354.079h0.001L6.536,583.494l0,0
		v569.739c0,5.982,4.243,10.83,9.476,10.83h92.552c5.232,0,9.475-4.847,9.475-10.83V892.834L118.038,892.834z"/>
	<path fill="#4D4D4E" d="M1647.844,1154.485c0,5.29-4.246,9.577-9.477,9.577h-92.552c-5.233,0-9.477-4.288-9.477-9.577
		l0.002-459.444h-160.612c-4.077,0-7.383-4.243-7.383-9.476v-92.551c0-5.234,3.306-9.476,7.383-9.476h432.724
		c4.076,0,7.383,4.242,7.383,9.476v92.551c0,5.233-3.307,9.476-7.383,9.476h-160.608V1154.485z"/>
	<path fill="#4D4D4E" d="M2188.077,584.925L2188.077,584.925l-289.166,579.037h124.634l49.392-98.902l-0.001,0h230.282l0.002,0.004
		l49.441,99.001l124.582-0.103L2188.077,584.925z M2247.531,953.558h-118.912l59.458-119.063l59.458,119.063H2247.531z"/>
</g>
</svg>
